<svg width="147px" height="18px" viewBox="0 0 147 18" version="1.1" xmlns="http://www.w3.org/2000/svg" xmlns:xlink="http://www.w3.org/1999/xlink">
    <!-- Generator: Sketch 53.2 (72643) - https://sketchapp.com -->
    <title>Group 7</title>
    <desc>Created with Sketch.</desc>
    <defs>
        <polygon id="path-1" points="0.21947076 0.0956280048 77.0968962 0.0956280048 77.0968962 17.1274038 0.21947076 17.1274038"></polygon>
    </defs>
    <g id="Page-1" stroke="none" stroke-width="1" fill="none" fill-rule="evenodd">
        <g id="homepage-2-copy-6" transform="translate(-69.000000, -19.000000)">
            <g id="Group-7" transform="translate(69.000000, 19.000000)">
                <g id="Group-6">
                    <path d="M78.6452758,6.92983731 L78.2408377,6.52448875 L78.9471804,5.81655606 C76.3183324,3.18179044 72.054643,3.18179044 69.4229469,5.81655606 C66.7912508,8.45417625 66.7912508,12.7274635 69.4229469,15.3650837 L70.1292895,14.657151 L69.7220032,14.2518025 C69.4998471,14.0291462 69.5055434,13.660907 69.7333959,13.4296871 C69.9612483,13.2013217 70.3286605,13.1984671 70.5508166,13.4211234 L70.9581029,13.8264719 L71.6644456,13.1185392 C70.2716973,11.7226558 70.2716973,9.45898395 71.6644456,8.06310053 C73.0543457,6.66721712 75.3129334,6.66721712 76.7056816,8.06310053 L77.4120243,7.35516784 L77.8164625,7.76337096 C78.0386186,7.98602721 78.4088789,7.98031808 78.6367314,7.7519527 C78.8645838,7.52358731 78.8702802,7.15249356 78.6452758,6.92983731 L78.6452758,6.92983731 Z M64.2279104,12.1993686 L66.3469384,14.5829323 C64.6978561,16.2956726 62.9149105,17.1548974 60.9981016,17.1548974 C59.0784444,17.1548974 57.4606919,16.5468746 56.1362994,15.3308289 C54.8119068,14.1176378 54.1482865,12.5276438 54.1482865,10.5665561 C54.1482865,8.60546832 54.8204513,7.0097652 56.1590846,5.77944669 C57.4977179,4.54912818 59.0869889,3.93254164 60.9240495,3.93254164 C61.846852,3.93254164 62.7753509,4.12379765 63.7180905,4.5034551 C64.6608301,4.88596712 65.4896435,5.44831688 66.2045306,6.19621351 L64.347533,8.62545029 C63.9373985,8.13161015 63.4332749,7.7519527 62.8380103,7.4807688 C62.2455939,7.21243947 61.6531774,7.07542024 61.0664573,7.07542024 C60.1322622,7.07542024 59.3290822,7.38371351 58.6540692,7.99459092 C57.9819044,8.60546832 57.645822,9.45612938 57.645822,10.5437195 C57.645822,11.6313097 57.9819044,12.4762616 58.6540692,13.0814299 C59.3290822,13.6837436 60.1180214,13.9863277 61.0208868,13.9863277 C62.2085678,13.9863277 63.2766263,13.3897231 64.2279104,12.1993686 Z M52.8096532,7.28951279 C51.747291,7.28951279 50.9526555,7.66917024 50.431443,8.42277601 C49.9073823,9.17638178 49.6453519,10.1726258 49.6453519,11.411508 L49.6453519,16.9636414 L46.0794607,16.9636414 L46.0794607,4.14663419 L49.6453519,4.14663419 L49.6453519,5.83653803 C50.103905,5.31415221 50.6820807,4.86883971 51.3684863,4.5034551 C52.05774,4.13807048 52.7583864,3.94681447 53.4732735,3.93254164 L53.4960588,7.28951279 L52.8096532,7.28951279 Z M38.3182357,7.02974717 C37.4467,7.02974717 36.6748497,7.3152039 35.9998368,7.88611736 C35.327672,8.45988539 34.9915896,9.25060053 34.9915896,10.2696811 C34.9915896,10.4580825 35.000134,10.6036654 35.0143748,10.6978662 L40.5768234,8.43419428 C40.3717562,7.49789621 39.619843,7.02974717 38.3182357,7.02974717 L38.3182357,7.02974717 Z M38.2014613,14.2232568 C38.8821706,14.2232568 39.5429428,14.0548373 40.1837779,13.7122892 C40.8274611,13.3697412 41.337281,12.9130104 41.7189339,12.3420969 L43.7639099,14.5572412 C42.1319165,16.2899635 40.2863115,17.1548974 38.2356392,17.1548974 C36.1849669,17.1548974 34.5472772,16.5268926 33.3282665,15.270883 C32.1064076,14.0177279 31.4969022,12.4163157 31.4969022,10.4723553 C31.4969022,8.52554044 32.1662189,6.94981928 33.5048522,5.74233731 C34.8434855,4.53485534 36.3843378,3.93254164 38.1274093,3.93254164 C39.8733289,3.93254164 41.3287366,4.42352721 42.505025,5.40835294 C43.6756171,6.39317866 44.3079077,7.66346111 44.404745,9.22205486 L44.404745,9.67307649 L35.894455,13.1984671 C36.4327565,13.8835633 37.2017586,14.2232568 38.2014613,14.2232568 L38.2014613,14.2232568 Z M0.00199370917,4.14663419 L0.00199370917,6.93269188 L3.01534271,6.93269188 L3.01534271,16.9636414 L6.58123396,16.9636414 L6.58123396,4.14663419 L0.00199370917,4.14663419 Z M27.0936531,0.310095725 L27.0936531,4.14663419 L30.1839023,4.14663419 L30.1839023,6.93269188 L27.0936531,6.93269188 L27.0936531,12.4591342 C27.0936531,12.9529743 27.218972,13.3383409 27.475306,13.6152339 C27.7287919,13.8949815 28.0306964,14.0320008 28.3781715,14.0320008 C29.0446399,14.0320008 29.6057267,13.7322712 30.0642798,13.1271029 L31.3972168,15.6305585 C30.2864359,16.6467844 29.118692,17.1548974 27.8911368,17.1548974 C26.6635816,17.1548974 25.6240046,16.7495488 24.7752542,15.9388517 C23.9293519,15.1310092 23.5049766,14.0262916 23.5049766,12.6275537 L23.5049766,0.310095725 L27.0936531,0.310095725 Z M12.7389471,9.81580486 L12.7389471,16.9636414 L9.17305587,16.9636414 L9.17305587,4.14663419 L12.7389471,4.14663419 L12.7389471,5.57391784 C13.8155501,4.48061856 15.0288645,3.93254164 16.3760423,3.93254164 C17.7203719,3.93254164 18.8510898,4.40925438 19.7624997,5.36267986 C20.6739096,6.31325077 21.1324627,7.58353322 21.1324627,9.17352721 L21.1324627,16.9636414 L17.5637233,16.9636414 L17.5637233,9.72160414 C17.5637233,7.7519527 16.8431398,6.76712697 15.4019729,6.76712697 C14.6870858,6.76712697 14.0661878,7.02403803 13.5364308,7.54071471 C13.0038256,8.0573914 12.7389471,8.8167063 12.7389471,9.81580486 L12.7389471,9.81580486 Z" id="Fill-1" fill="#FFFFFF"></path>
                    <g id="Group-5" transform="translate(69.202052, 0.215324)">
                        <mask id="mask-2" fill="white">
                            <use xlink:href="#path-1"></use>
                        </mask>
                        <g id="Clip-4"></g>
                        <path d="M9.74655242,5.60208834 L9.04020974,6.31002103 L9.44464789,6.71536959 C9.66965221,6.93802584 9.66395589,7.30626502 9.43610342,7.53463041 C9.20825094,7.76585036 8.83799067,7.76870493 8.6158345,7.54604868 L8.21139636,7.14070012 L7.50505368,7.84863281 C8.89780194,9.24451623 8.89780194,11.5081881 7.50505368,12.9040715 C6.11230542,14.2999549 3.85371775,14.2999549 2.46096949,12.9040715 L1.75462682,13.6120042 L1.35018867,13.2066556 C1.12803251,12.9811448 0.760620391,12.986854 0.532767915,13.2152194 C0.304915439,13.4464393 0.299219127,13.8118239 0.521375291,14.0373347 L0.925813436,14.4426833 L0.21947076,15.150616 C2.85116686,17.7882362 7.11485632,17.7882362 9.74655242,15.150616 C12.3782485,12.5129958 12.3782485,8.23685397 9.74655242,5.60208834 L9.74655242,5.60208834 Z M72.7961807,0.0956280048 L72.7961807,3.93216647 L75.8864299,3.93216647 L75.8864299,6.71822416 L72.7961807,6.71822416 L72.7961807,12.2446665 C72.7961807,12.7385066 72.9243477,13.1238732 73.1778336,13.4007662 C73.4284713,13.6805138 73.7303759,13.8175331 74.080699,13.8175331 C74.7443194,13.8175331 75.3082543,13.5149489 75.7668074,12.9126352 L77.0968962,15.4160907 C75.9889635,16.4294621 74.8212196,16.9404297 73.5908162,16.9404297 C72.363261,16.9404297 71.3236841,16.5350811 70.4777818,15.724384 C69.6290313,14.9136869 69.2046561,13.8089694 69.2046561,12.4130859 L69.2046561,0.0956280048 L72.7961807,0.0956280048 Z M62.5542119,13.7690054 C63.7447411,13.7690054 64.8127996,13.1752554 65.7640837,11.9820463 L67.8802635,14.36561 C66.2311812,16.0812049 64.4482356,16.9404297 62.5314267,16.9404297 C60.6117696,16.9404297 58.994017,16.3324069 57.6696245,15.1163612 C56.3452319,13.9003155 55.6844598,12.3131761 55.6844598,10.3520883 C55.6844598,8.3910006 56.3537764,6.79244291 57.6924097,5.5621244 C59.0338912,4.33180589 60.620314,3.71521935 62.4602228,3.71521935 C63.377329,3.71521935 64.308676,3.90647536 65.2514156,4.28898738 C66.1941552,4.66864483 67.0229686,5.23384916 67.7350076,5.97889123 L65.8837062,8.408128 C65.4678754,7.91714243 64.9694482,7.53748498 64.3741836,7.26630108 C63.778919,6.99511719 63.1893507,6.86095252 62.6026306,6.86095252 C61.6655873,6.86095252 60.8624073,7.16639123 60.1902425,7.77726863 C59.5180777,8.3910006 59.1791471,9.23880709 59.1791471,10.3263972 C59.1791471,11.4168419 59.5180777,12.2617939 60.1902425,12.8641076 C60.8624073,13.4692758 61.6513465,13.7690054 62.5542119,13.7690054 L62.5542119,13.7690054 Z M48.5555254,6.81242488 C47.6839897,6.81242488 46.9121394,7.09788161 46.2399746,7.67164964 C45.5649617,8.2425631 45.2288793,9.03613281 45.2288793,10.0552133 C45.2288793,10.2436148 45.2345756,10.3863431 45.2516645,10.4805439 L50.8141131,8.21972656 C50.6090458,7.28057392 49.8542845,6.81242488 48.5555254,6.81242488 L48.5555254,6.81242488 Z M48.4359029,14.0087891 C49.1166121,14.0087891 49.7802325,13.837515 50.4210676,13.4978215 C51.0647508,13.1552734 51.5774189,12.6985427 51.9533755,12.1276292 L53.9983514,14.3427734 C52.3663581,16.0726412 50.5236012,16.9404297 48.4729289,16.9404297 C46.4194084,16.9404297 44.7845669,16.3124249 43.562708,15.0564153 C42.3408491,13.8032602 41.7313437,12.201848 41.7313437,10.2550331 C41.7313437,8.31107272 42.4035086,6.732497 43.7421419,5.52786959 C45.0807751,4.32038762 46.6216275,3.71521935 48.3675471,3.71521935 C50.1077704,3.71521935 51.5688744,4.2090595 52.7394665,5.19388522 C53.9129068,6.17871094 54.5451974,7.44899339 54.6420347,9.00473257 L54.6420347,9.45860877 L46.1288965,12.9839994 C46.6700462,13.666241 47.4362001,14.0087891 48.4359029,14.0087891 L48.4359029,14.0087891 Z M31.6089975,9.60133714 L31.6089975,16.7491737 L28.0431062,16.7491737 L28.0431062,3.93216647 L31.6089975,3.93216647 L31.6089975,5.35945012 C32.6884486,4.26329627 33.8989149,3.71521935 35.2460926,3.71521935 C36.5932704,3.71521935 37.7211402,4.19193209 38.6353982,5.14535757 C39.54396,6.09878305 39.9996649,7.3690655 39.9996649,8.95620493 L39.9996649,16.7491737 L36.4337737,16.7491737 L36.4337737,9.50713642 C36.4337737,7.53748498 35.7131902,6.55265925 34.2720233,6.55265925 C33.5571362,6.55265925 32.9362382,6.80957031 32.4064812,7.326247 C31.8767242,7.84292368 31.6089975,8.59938401 31.6089975,9.60133714 L31.6089975,9.60133714 Z M17.1802394,9.60133714 L17.1802394,16.7491737 L13.6143482,16.7491737 L13.6143482,3.93216647 L17.1802394,3.93216647 L17.1802394,5.35945012 C18.2596906,4.26329627 19.473005,3.71521935 20.8201828,3.71521935 C22.1645124,3.71521935 23.2952303,4.19193209 24.2066402,5.14535757 C25.1152019,6.09878305 25.573755,7.3690655 25.573755,8.95620493 L25.573755,16.7491737 L22.0078638,16.7491737 L22.0078638,9.50713642 C22.0078638,7.53748498 21.2872803,6.55265925 19.8461134,6.55265925 C19.1312263,6.55265925 18.5074801,6.80957031 17.9805713,7.326247 C17.4479661,7.84292368 17.1802394,8.59938401 17.1802394,9.60133714 L17.1802394,9.60133714 Z" id="Fill-3" fill="#FFC945" mask="url(#mask-2)"></path>
                    </g>
                </g>
            </g>
        </g>
    </g>
</svg>